name Walk7.mot
datacolumns 19
datarows 15
range 1.28500000 1.29900000
endheader

                time	   L_ground_force_vx	   L_ground_force_vy	   L_ground_force_vz	   L_ground_force_px	   L_ground_force_py	   L_ground_force_pz	   R_ground_force_vx	   R_ground_force_vy	   R_ground_force_vz	   R_ground_force_px	   R_ground_force_py	   R_ground_force_pz	   L_ground_torque_x	   L_ground_torque_y	   L_ground_torque_z	   R_ground_torque_x	   R_ground_torque_y	   R_ground_torque_z	
          1.28500000	         -2.18934650	         94.19820300	        -11.47708180	         -0.14530262	          0.00000000	         -0.00847267	         -0.00000028	          0.00000214	          0.00000015	          0.00000000	          0.00000000	          0.00000000	          0.00000000	          0.12688128	          0.00000000	          0.00000000	         -0.00000003	          0.00000000	
          1.28600000	         -2.80069376	        101.44771208	        -12.21536239	         -0.15364719	          0.00000000	         -0.00897480	         -0.00000028	          0.00000220	          0.00000015	          0.00000000	          0.00000000	          0.00000000	          0.00000000	          0.13707825	          0.00000000	          0.00000000	         -0.00000004	          0.00000000	
          1.28700000	         -3.45728388	        108.95191220	        -12.97179939	         -0.16213263	          0.00000000	         -0.00948652	         -0.00000028	          0.00000225	          0.00000016	          0.00000000	          0.00000000	          0.00000000	          0.00000000	          0.14765664	          0.00000000	          0.00000000	         -0.00000004	          0.00000000	
          1.28800000	         -4.16060939	        116.70347887	        -13.74495598	         -0.17073698	          0.00000000	         -0.01000661	         -0.00000029	          0.00000230	          0.00000016	          0.00000000	          0.00000000	          0.00000000	          0.00000000	          0.15860822	          0.00000000	          0.00000000	         -0.00000004	          0.00000000	
          1.28900000	         -4.91210851	        124.69338538	        -14.53319274	         -0.17943577	          0.00000000	         -0.01053370	         -0.00000029	          0.00000234	          0.00000016	          0.00000000	          0.00000000	          0.00000000	          0.00000000	          0.16992245	          0.00000000	          0.00000000	         -0.00000004	          0.00000000	
          1.29000000	         -5.71315415	        132.91078187	        -15.33465567	         -0.18820184	          0.00000000	         -0.01106628	         -0.00000029	          0.00000238	          0.00000016	          0.00000000	          0.00000000	          0.00000000	          0.00000000	          0.18158628	          0.00000000	          0.00000000	         -0.00000004	          0.00000000	
          1.29100000	         -6.56504218	        141.34287075	        -16.14726383	         -0.19700524	          0.00000000	         -0.01160264	         -0.00000028	          0.00000241	          0.00000016	          0.00000000	          0.00000000	          0.00000000	          0.00000000	          0.19358404	          0.00000000	          0.00000000	         -0.00000004	          0.00000000	
          1.29200000	         -7.46897899	        149.97479901	        -16.96870121	         -0.20581348	          0.00000000	         -0.01214094	         -0.00000028	          0.00000243	          0.00000016	          0.00000000	          0.00000000	          0.00000000	          0.00000000	          0.20589727	          0.00000000	          0.00000000	         -0.00000004	          0.00000000	
          1.29300000	         -8.42606847	        158.78963061	        -17.79642314	         -0.21459298	          0.00000000	         -0.01267930	         -0.00000028	          0.00000245	          0.00000016	          0.00000000	          0.00000000	          0.00000000	          0.00000000	          0.21850485	          0.00000000	          0.00000000	         -0.00000004	          0.00000000	
          1.29400000	         -9.43729788	        167.76845420	        -18.62767853	         -0.22331130	          0.00000000	         -0.01321588	         -0.00000027	          0.00000246	          0.00000016	          0.00000000	          0.00000000	          0.00000000	          0.00000000	          0.23138327	          0.00000000	          0.00000000	         -0.00000004	          0.00000000	
          1.29500000	        -10.50352131	        176.89062625	        -19.45953373	         -0.23193861	          0.00000000	         -0.01374907	         -0.00000026	          0.00000245	          0.00000016	          0.00000000	          0.00000000	          0.00000000	          0.00000000	          0.24450695	          0.00000000	          0.00000000	         -0.00000004	          0.00000000	
          1.29600000	        -11.62543854	        186.13413974	        -20.28888849	         -0.24044793	          0.00000000	         -0.01427743	         -0.00000025	          0.00000244	          0.00000015	          0.00000000	          0.00000000	          0.00000000	          0.00000000	          0.25784838	          0.00000000	          0.00000000	         -0.00000004	          0.00000000	
          1.29700000	        -12.80356701	        195.47611690	        -21.11248640	         -0.24881498	          0.00000000	         -0.01479977	         -0.00000024	          0.00000242	          0.00000015	          0.00000000	          0.00000000	          0.00000000	          0.00000000	          0.27137811	          0.00000000	          0.00000000	         -0.00000004	          0.00000000	
          1.29800000	        -14.03820538	        204.89339491	        -21.92692316	         -0.25701805	          0.00000000	         -0.01531507	         -0.00000023	          0.00000238	          0.00000014	          0.00000000	          0.00000000	          0.00000000	          0.00000000	          0.28506478	          0.00000000	          0.00000000	         -0.00000004	          0.00000000	
          1.29900000	        -15.32938913	        214.36313664	        -22.72865573	         -0.26503785	          0.00000000	         -0.01582251	         -0.00000021	          0.00000233	          0.00000014	          0.00000000	          0.00000000	          0.00000000	          0.00000000	          0.29887487	          0.00000000	          0.00000000	         -0.00000004	          0.00000000	
